<svg width="15" height="15" viewBox="0 0 15 15" fill="none" xmlns="http://www.w3.org/2000/svg">
<mask id="path-1-inside-1_0_33" fill="white">
<path d="M3.75 4.5L7.5 8.25L11.25 4.5L12.75 5.25L7.5 10.5L2.25 5.25L3.75 4.5Z"/>
</mask>
<path d="M3.75 4.5L7.5 8.25L11.25 4.5L12.75 5.25L7.5 10.5L2.25 5.25L3.75 4.5Z" fill="black"/>
<path d="M3.75 4.5L5.16421 3.08579L4.14491 2.06648L2.85557 2.71115L3.75 4.5ZM7.5 8.25L6.08579 9.66421L7.5 11.0784L8.91421 9.66421L7.5 8.25ZM11.25 4.5L12.1444 2.71115L10.8551 2.06648L9.83579 3.08579L11.25 4.5ZM12.75 5.25L14.1642 6.66421L16.1263 4.7021L13.6444 3.46115L12.75 5.25ZM7.5 10.5L6.08579 11.9142L7.5 13.3284L8.91421 11.9142L7.5 10.5ZM2.25 5.25L1.35557 3.46115L-1.12633 4.7021L0.835786 6.66421L2.25 5.25ZM2.33579 5.91421L6.08579 9.66421L8.91421 6.83579L5.16421 3.08579L2.33579 5.91421ZM8.91421 9.66421L12.6642 5.91421L9.83579 3.08579L6.08579 6.83579L8.91421 9.66421ZM10.3556 6.28885L11.8556 7.03885L13.6444 3.46115L12.1444 2.71115L10.3556 6.28885ZM11.3358 3.83579L6.08579 9.08579L8.91421 11.9142L14.1642 6.66421L11.3358 3.83579ZM8.91421 9.08579L3.66421 3.83579L0.835786 6.66421L6.08579 11.9142L8.91421 9.08579ZM3.14443 7.03885L4.64443 6.28885L2.85557 2.71115L1.35557 3.46115L3.14443 7.03885Z" fill="black" mask="url(#path-1-inside-1_0_33)"/>
</svg>
